<svg xmlns="http://www.w3.org/2000/svg" width="1024" height="1024" viewBox="0 0 1024 1024">
  <rect width="1024" height="1024" fill="#FBF6EA"/>
  <g transform="translate(520 540)">
    <g transform="translate(-8 -152)">
      <ellipse cx="0" cy="0" rx="220" ry="210" fill="#C9F73A" stroke="#142A1F" stroke-width="26"/>
      <g fill="#142A1F" opacity="0.92">
        <circle cx="-84" cy="-92" r="24"/>
        <circle cx="-28" cy="-124" r="20"/>
        <circle cx="38" cy="-118" r="24"/>
        <circle cx="96" cy="-82" r="20"/>
        <circle cx="-98" cy="-8" r="20"/>
        <circle cx="-34" cy="-24" r="22"/>
        <circle cx="30" cy="-10" r="20"/>
        <circle cx="96" cy="8" r="18"/>
      </g>
      <path d="M-64 -30 Q-30 -62 18 -56 Q60 -50 86 -20" fill="none" stroke="#FBF6EA" stroke-width="16" stroke-linecap="round"/>
      <circle cx="-58" cy="-6" r="10" fill="#FBF6EA"/>
      <circle cx="42" cy="-6" r="10" fill="#FBF6EA"/>
      <path d="M-4 16 Q18 32 38 18" fill="none" stroke="#FBF6EA" stroke-width="14" stroke-linecap="round"/>
      <path d="M-22 52 Q4 68 34 54" fill="none" stroke="#FBF6EA" stroke-width="12" stroke-linecap="round"/>
      <g transform="translate(-4 -176) rotate(-12)">
        <path d="M-82 -26 Q-20 -88 52 -74 Q12 -22 -52 8 Q-90 2 -82 -26Z" fill="#FFC93C" stroke="#142A1F" stroke-width="14" stroke-linejoin="round"/>
        <path d="M-62 -88 L-44 -128 L-14 -98 L2 -140 L28 -100 L52 -132 L68 -94" fill="none" stroke="#142A1F" stroke-width="14" stroke-linecap="round" stroke-linejoin="round"/>
        <path d="M-20 -102 L-4 -128" stroke="#FFC93C" stroke-width="16" stroke-linecap="round"/>
        <path d="M16 -102 L34 -128" stroke="#FFC93C" stroke-width="16" stroke-linecap="round"/>
      </g>
    </g>
    <g stroke="#142A1F" stroke-width="22" stroke-linecap="round" stroke-linejoin="round">
      <path d="M-126 66 Q-212 126 -206 232" fill="none"/>
      <path d="M-210 228 Q-224 298 -176 338" fill="none"/>
      <path d="M122 74 Q190 130 198 222" fill="none"/>
      <path d="M182 220 Q214 290 178 344" fill="none"/>
      <path d="M-82 270 Q-98 360 -58 408" fill="none"/>
      <path d="M72 272 Q94 362 56 410" fill="none"/>
      <path d="M-184 354 Q-110 388 -36 366" fill="none"/>
      <path d="M34 368 Q114 402 182 358" fill="none"/>
    </g>
    <g fill="#C9F73A" stroke="#142A1F" stroke-width="22" stroke-linejoin="round">
      <path d="M-258 210 Q-310 164 -288 118 Q-238 120 -204 176 Z"/>
      <path d="M214 212 Q262 166 242 116 Q192 120 156 176 Z"/>
    </g>
    <g transform="translate(-168 198) rotate(-14)">
      <rect x="-54" y="-6" width="156" height="48" rx="24" fill="#14604A" stroke="#142A1F" stroke-width="18"/>
      <rect x="70" y="-12" width="42" height="90" rx="20" fill="#FFC93C" stroke="#142A1F" stroke-width="18"/>
      <path d="M-24 10 L96 10" stroke="#FBF6EA" stroke-width="14"/>
    </g>
    <path d="M-48 110 Q-14 164 14 190" fill="none" stroke="#142A1F" stroke-width="24" stroke-linecap="round"/>
    <path d="M0 190 Q46 226 114 214" fill="none" stroke="#142A1F" stroke-width="24" stroke-linecap="round"/>
    <g stroke="#142A1F" stroke-width="24" stroke-linecap="round">
      <path d="M-96 320 Q-126 408 -80 470"/>
      <path d="M86 320 Q134 410 94 470"/>
    </g>
    <g fill="#142A1F">
      <ellipse cx="-108" cy="482" rx="46" ry="24"/>
      <ellipse cx="112" cy="482" rx="46" ry="24"/>
    </g>
    <g fill="#FF6B4A" opacity="0.95">
      <path d="M-302 34 Q-264 22 -236 54 Q-286 76 -302 34Z"/>
      <path d="M284 30 Q248 20 220 54 Q266 76 284 30Z"/>
    </g>
    <g stroke="#142A1F" stroke-width="12" stroke-linecap="round">
      <path d="M-306 -4 L-270 12"/>
      <path d="M308 -6 L272 10"/>
    </g>
  </g>
</svg>
